<svg width="1024" height="1024" viewBox="0 0 1024 1024" fill="none" xmlns="http://www.w3.org/2000/svg">
<path d="M132.329 711.272C85.2033 674.709 85.1677 615.382 132.25 578.763L427.755 348.925C474.837 312.306 551.209 312.26 598.335 348.823L894.114 578.307C941.24 614.871 941.276 674.197 894.193 710.817L598.688 940.654C551.606 977.274 475.235 977.319 428.109 940.756L132.329 711.272Z" fill="#0077FF"/>
<path d="M132.329 711.272C85.2033 674.709 85.1677 615.382 132.25 578.763L427.755 348.925C474.837 312.306 551.209 312.26 598.335 348.823L894.114 578.307C941.24 614.871 941.276 674.197 894.193 710.817L598.688 940.654C551.606 977.274 475.235 977.319 428.109 940.756L132.329 711.272Z" fill="black" fill-opacity="0.4"/>
</svg>
