<svg width="1024" height="1024" viewBox="0 0 1024 1024" fill="none" xmlns="http://www.w3.org/2000/svg">
<path d="M132.329 621.272C85.2033 584.709 85.1677 525.382 132.25 488.763L427.755 258.925C474.837 222.306 551.209 222.26 598.335 258.823L894.114 488.307C941.24 524.871 941.276 584.197 894.193 620.817L598.688 850.654C551.606 887.274 475.235 887.319 428.109 850.756L132.329 621.272Z" fill="#0077FF"/>
<path d="M132.329 621.272C85.2033 584.709 85.1677 525.382 132.25 488.763L427.755 258.925C474.837 222.306 551.209 222.26 598.335 258.823L894.114 488.307C941.24 524.871 941.276 584.197 894.193 620.817L598.688 850.654C551.606 887.274 475.235 887.319 428.109 850.756L132.329 621.272Z" fill="black" fill-opacity="0.2"/>
</svg>
